<svg xmlns="http://www.w3.org/2000/svg" xmlns:xlink="http://www.w3.org/1999/xlink" viewBox="0 0 494 505.09"><defs><style>.a,.aa,.af,.e,.f,.g,.h,.i,.j,.k,.l,.m,.p,.q,.v,.y,.z{fill:none;}.b{fill:#89229b;}.c{fill:#ff9800;}.d{fill:#05bcfb;}.e{stroke:#89229b;}.ac,.ad,.af,.ah,.aj,.an,.e,.f,.g,.h,.i,.j,.k,.l,.m,.p,.q,.t,.v,.w,.y{stroke-linecap:round;}.ac,.ad,.af,.ah,.aj,.an,.e,.p,.q,.t,.v,.w,.y,.z{stroke-linejoin:round;}.e,.p,.q{stroke-width:2px;}.f,.g,.h,.i,.j,.k,.l,.m{stroke:#fd0d51;stroke-width:3px;}.aa,.am,.f,.g,.h,.i,.j,.k,.l,.m{stroke-miterlimit:10;}.g{stroke-dasharray:2.01 7.03;}.h{stroke-dasharray:2.05 7.19;}.i{stroke-dasharray:2 6.99;}.j{stroke-dasharray:1.98 6.92;}.k{stroke-dasharray:2.02 7.08;}.l{stroke-dasharray:2.02 7.08;}.m{stroke-dasharray:2.02 7.09;}.n{fill:#00bcd4;}.o{fill:#f44336;}.p{stroke:#fff;opacity:0.5;}.q{stroke:#f44336;}.r{fill:#fde803;}.s{clip-path:url(#a);}.ak,.t,.w{fill:#f9fbfc;}.ac,.ad,.ah,.aj,.am,.an,.t,.v,.w,.y,.z{stroke:#2b343b;}.ac,.aj,.u{fill:#ffaa96;}.aa,.ac,.ad,.ah,.am,.an,.v,.w,.z{stroke-width:1.5px;}.ad,.x{fill:#2b343b;}.aa{stroke:#ffaa96;}.ab{clip-path:url(#b);}.ae{clip-path:url(#c);}.af{stroke:#f9fbfc;}.ag{clip-path:url(#d);}.ah,.am{fill:#f7c374;}.ai{clip-path:url(#e);}.al{clip-path:url(#f);}.an{fill:#fff;}</style><clipPath id="a"><circle class="a" cx="244.62" cy="444.55" r="56.7"/></clipPath><clipPath id="b"><circle class="a" cx="308.65" cy="240.1" r="56.7"/></clipPath><clipPath id="c"><circle class="a" cx="56.7" cy="167.44" r="56.7"/></clipPath><clipPath id="d"><circle class="a" cx="437.3" cy="341.53" r="56.7"/></clipPath><clipPath id="e"><circle class="a" cx="143.02" cy="335.86" r="56.7"/></clipPath><clipPath id="f"><circle class="a" cx="230.34" cy="93.43" r="56.7"/></clipPath></defs><title>Recurso 7</title><rect class="b" x="427.41" y="45.41" width="32" height="40.41" rx="3" ry="3" transform="translate(4.3 155.61) rotate(-20)"/><rect class="c" x="430.94" y="37.83" width="32" height="40.41" rx="3" ry="3" transform="translate(7.1 156.36) rotate(-20)"/><path class="b" d="M436,53.23a3.26,3.26,0,1,1,1.95-4.18A3.26,3.26,0,0,1,436,53.23ZM434.08,48A2.26,2.26,0,1,0,437,49.4,2.26,2.26,0,0,0,434.08,48Z"/><rect class="b" x="442.62" y="47.44" width="12.83" height="1" transform="translate(10.68 156.47) rotate(-20)"/><rect class="b" x="435.9" y="58.58" width="23.27" height="1" transform="translate(6.78 156.63) rotate(-20)"/><rect class="b" x="437.52" y="63.03" width="23.27" height="1" transform="translate(5.36 157.45) rotate(-20)"/><rect class="b" x="439.14" y="67.47" width="23.27" height="1" transform="translate(3.94 158.27) rotate(-20)"/><path class="d" d="M412.91,482.58l-9-15.57a2.38,2.38,0,0,0-1.14-1,14.72,14.72,0,0,1-4.07,2.35,2.38,2.38,0,0,0,.3,1.48l9,15.57a2.4,2.4,0,0,0,3.28.88l.76-.44A2.4,2.4,0,0,0,412.91,482.58Z"/><circle class="e" cx="392.7" cy="453.25" r="16.28" transform="translate(-174.01 257.08) rotate(-30)"/><line class="f" x1="56.7" y1="167.44" x2="57.66" y2="167.71"/><line class="g" x1="64.42" y1="169.66" x2="304.31" y2="238.85"/><polyline class="f" points="307.69 239.82 308.65 240.1 308.18 239.22"/><line class="h" x1="304.8" y1="232.88" x2="232.5" y2="97.48"/><line class="f" x1="230.81" y1="94.31" x2="230.34" y2="93.43"/><line class="f" x1="230.34" y1="93.43" x2="229.42" y2="93.82"/><line class="i" x1="222.99" y1="96.56" x2="60.84" y2="165.67"/><polyline class="f" points="57.62 167.04 56.7 167.44 57.16 168.33"/><polyline class="j" points="60.31 174.48 143.02 335.86 241.58 441.29"/><polyline class="f" points="243.94 443.82 244.62 444.55 245.5 444.08"/><line class="k" x1="251.75" y1="440.74" x2="433.29" y2="343.67"/><polyline class="f" points="436.42 342 437.3 341.53 436.51 340.91"/><line class="l" x1="430.95" y1="336.53" x2="312.22" y2="242.91"/><polyline class="f" points="309.44 240.72 308.65 240.1 307.79 240.6"/><line class="m" x1="301.65" y1="244.15" x2="146.95" y2="333.59"/><line class="f" x1="143.88" y1="335.36" x2="143.02" y2="335.86"/><path class="n" d="M335.58,371a9.73,9.73,0,0,0-4.93-17.09,9.73,9.73,0,1,0-19.32,1.22l-.44,12.3a3.49,3.49,0,0,0,3,3.58l12.19,1.7A9.72,9.72,0,0,0,335.58,371Z"/><path class="b" d="M444.89,186.54a11.65,11.65,0,0,0-12.55-17.21,11.65,11.65,0,1,0-21.24,9.29l4.54,14a4.18,4.18,0,0,0,4.85,2.8l14.42-3.08A11.64,11.64,0,0,0,444.89,186.54Z"/><path class="o" d="M166.66,147.77a9.83,9.83,0,0,0-16.15,7.91,9.83,9.83,0,1,0,4.61,19L167.45,173a3.53,3.53,0,0,0,3-3.62L170,156.91A9.83,9.83,0,0,0,166.66,147.77Z"/><path class="c" d="M286.5,338.69l-16.65,28.84a2.27,2.27,0,0,1-3.1.83l-52.49-30.31a2.27,2.27,0,0,1-.83-3.1l16.65-28.84a2.27,2.27,0,0,1,3.1-.83l25.26,14.58a1.12,1.12,0,0,0,1.55-.42l1.71-3a3.41,3.41,0,0,1,4.65-1.25L279.73,323a3.4,3.4,0,0,1,1.25,4.65l-1.71,3a1.13,1.13,0,0,0,.42,1.55l6,3.46A2.27,2.27,0,0,1,286.5,338.69Z"/><path class="e" d="M231.06,347.75l-16.8-9.7a2.27,2.27,0,0,1-.83-3.1l16.65-28.84"/><path class="e" d="M258.44,319.86a1.12,1.12,0,0,0,1.55-.42l1.71-3a3.41,3.41,0,0,1,4.65-1.25L279.73,323a3.4,3.4,0,0,1,1.25,4.65l-1.71,3a1.13,1.13,0,0,0,.42,1.55l6,3.46a2.27,2.27,0,0,1,.83,3.1l-16.65,28.84a2.27,2.27,0,0,1-3.1.83"/><circle class="e" cx="249.11" cy="336.75" r="11.58" transform="translate(-167.08 384.11) rotate(-60)"/><path class="p" d="M242.67,333a7.44,7.44,0,0,1,10.16-2.72"/><rect class="d" x="109.87" y="8.83" width="51.84" height="31.34" rx="2" ry="2" transform="translate(2.37 59.69) rotate(-25)"/><polyline class="e" points="106.53 23.07 135.79 24.5 153.51 1.16"/><line class="q" x1="101.34" y1="409.27" x2="135.01" y2="409.27"/><line class="q" x1="92.13" y1="409.27" x2="96.64" y2="409.27"/><line class="q" x1="76.43" y1="418.96" x2="110.09" y2="418.96"/><path class="q" d="M69.39,427.53a3.48,3.48,0,0,0,2.94,1.6,3.45,3.45,0,0,0,2.85-1.5l.14-.2a3.46,3.46,0,0,1,5.76.1"/><path class="q" d="M81.07,427.53a3.48,3.48,0,0,0,2.94,1.6,3.45,3.45,0,0,0,2.85-1.5l.14-.2a3.46,3.46,0,0,1,5.76.1"/><path class="q" d="M92.75,427.53a3.48,3.48,0,0,0,2.94,1.6,3.45,3.45,0,0,0,2.85-1.5l.14-.2a3.46,3.46,0,0,1,5.76.1"/><line class="q" x1="411.51" y1="238.59" x2="445.17" y2="238.59"/><line class="q" x1="402.29" y1="238.59" x2="406.81" y2="238.59"/><line class="q" x1="386.59" y1="248.29" x2="420.26" y2="248.29"/><line class="q" x1="76.07" y1="78.12" x2="109.73" y2="78.12"/><path class="q" d="M54.08,86.68A3.48,3.48,0,0,0,57,88.28a3.45,3.45,0,0,0,2.85-1.5l.14-.2a3.46,3.46,0,0,1,5.76.1"/><path class="q" d="M65.76,86.68a3.48,3.48,0,0,0,2.94,1.6,3.45,3.45,0,0,0,2.85-1.5l.14-.2a3.46,3.46,0,0,1,5.76.1"/><path class="q" d="M77.44,86.68a3.48,3.48,0,0,0,2.94,1.6,3.45,3.45,0,0,0,2.85-1.5l.14-.2a3.46,3.46,0,0,1,5.76.1"/><path class="q" d="M307.84,65.79a3.48,3.48,0,0,0,2.94,1.6,3.45,3.45,0,0,0,2.85-1.5l.14-.2a3.46,3.46,0,0,1,5.76.1"/><path class="q" d="M319.52,65.79a3.48,3.48,0,0,0,2.94,1.6,3.45,3.45,0,0,0,2.85-1.5l.14-.2a3.46,3.46,0,0,1,5.76.1"/><path class="q" d="M331.2,65.79a3.48,3.48,0,0,0,2.94,1.6,3.45,3.45,0,0,0,2.85-1.5l.14-.2a3.46,3.46,0,0,1,5.76.1"/><circle class="q" cx="342.65" cy="52.79" r="3.24"/><circle class="q" cx="394.83" cy="223.45" r="3.24"/><circle class="q" cx="458.49" cy="256.02" r="3.24"/><line class="q" x1="357.1" y1="61.83" x2="357.1" y2="67.64"/><path class="b" d="M138.17,426.06l1.85,1a.79.79,0,0,1,0,1.38l-1.85,1a1.76,1.76,0,0,0-.7.7l-1,1.85a.79.79,0,0,1-1.38,0l-1-1.85a1.76,1.76,0,0,0-.7-.7l-1.85-1a.79.79,0,0,1,0-1.38l1.85-1a1.76,1.76,0,0,0,.7-.7l1-1.85a.79.79,0,0,1,1.38,0l1,1.85A1.76,1.76,0,0,0,138.17,426.06Z"/><path class="b" d="M159.23,439.93l1.85,1a.79.79,0,0,1,0,1.38l-1.85,1a1.76,1.76,0,0,0-.7.7l-1,1.85a.79.79,0,0,1-1.38,0l-1-1.85a1.76,1.76,0,0,0-.7-.7l-1.85-1a.79.79,0,0,1,0-1.38l1.85-1a1.76,1.76,0,0,0,.7-.7l1-1.85a.79.79,0,0,1,1.38,0l1,1.85A1.76,1.76,0,0,0,159.23,439.93Z"/><path class="b" d="M108.28,96.24l1.85,1a.79.79,0,0,1,0,1.38l-1.85,1a1.76,1.76,0,0,0-.7.7l-1,1.85a.79.79,0,0,1-1.38,0l-1-1.85a1.76,1.76,0,0,0-.7-.7l-1.85-1a.79.79,0,0,1,0-1.38l1.85-1a1.76,1.76,0,0,0,.7-.7l1-1.85a.79.79,0,0,1,1.38,0l1,1.85A1.76,1.76,0,0,0,108.28,96.24Z"/><circle class="r" cx="244.62" cy="444.55" r="56.7"/><circle class="r" cx="308.65" cy="240.1" r="56.7"/><circle class="r" cx="56.7" cy="167.44" r="56.7"/><circle class="r" cx="437.3" cy="341.53" r="56.7"/><circle class="r" cx="143.02" cy="335.86" r="56.7"/><circle class="r" cx="230.34" cy="93.43" r="56.7"/><g class="s"><path class="t" d="M252.29,481V470.67a6.81,6.81,0,0,0-13.63,0V481c-11.28,2.1-18.28,11.16-18.28,20.21h50.18C270.55,492.19,263.56,483.14,252.29,481Z"/><path class="u" d="M239.05,467.43h12.84v8.3s-7.32,3.21-12.84,0Z"/><path class="v" d="M252.29,481V470.67a6.81,6.81,0,0,0-13.63,0V481c-11.28,2.1-18.28,11.16-18.28,20.21h50.18C270.55,492.19,263.56,483.14,252.29,481Z"/><path class="w" d="M216.89,462.16a6.07,6.07,0,0,0,6.23,6,6.18,6.18,0,0,0,6.29-6,6.07,6.07,0,0,0-6.23-6A6.18,6.18,0,0,0,216.89,462.16Z"/><path class="v" d="M220.38,462a14.81,14.81,0,0,1,2.81.08,5,5,0,0,1,2.55,1.11"/><path class="w" d="M274,462.16a6.07,6.07,0,0,1-6.23,6,6.18,6.18,0,0,1-6.29-6,6.07,6.07,0,0,1,6.23-6A6.18,6.18,0,0,1,274,462.16Z"/><path class="v" d="M270.45,462a14.81,14.81,0,0,0-2.81.08,5,5,0,0,0-2.55,1.11"/><rect class="w" x="222.7" y="412.64" width="45.49" height="59.5" rx="17.39" ry="17.39" transform="translate(490.9 884.79) rotate(180)"/><path class="x" d="M251.72,446.49a2.26,2.26,0,1,0,4.51.14c0-1.32-1-1.58-2.26-1.61S251.76,445.17,251.72,446.49Z"/><path class="x" d="M234.76,446.49a2.26,2.26,0,1,0,4.51.14c0-1.32-1-1.58-2.26-1.61S234.8,445.17,234.76,446.49Z"/><path class="y" d="M257,440a3.7,3.7,0,0,0-6.08-.26"/><path class="y" d="M240.06,440a3.69,3.69,0,0,0-6.08-.26"/><path class="y" d="M244,449.16a8.2,8.2,0,0,0-.57,1.05"/><path class="y" d="M246.06,439.21c.51,4.49,2.66,9.53.16,11.6"/><path class="y" d="M246.63,453.25s3,.25,0,2.19c.21.33,4,1.92-.6,2.94"/><path class="x" d="M254.18,481.45c0,3.74-3.9,5.93-8.67,5.93s-8.67-2.19-8.67-5.94c-10.18,2.7-16.43,11.24-16.43,19.79l25.09,3.85,25.09-3.85C270.59,492.69,264.35,484.16,254.18,481.45Z"/><path class="z" d="M254.15,481.45c0,3.75-3.89,5.94-8.67,5.94s-8.67-2.19-8.67-5.94"/><path class="x" d="M269,452.09c2.83-.42,3.23-5.53,1.28-8.09-.58-.77,1.06-1.63,1.32-2.55.21-.73.89-3.76.63-4.47-1.15-3.14-1.83-3.71-4-5.79l.26.42c1.22-1.65,2.16-1,2.07-5.89,0-1.92-3.17-3.8-4.87-4.71l.52.31c.39-1.12.92-2.5-1-5.88-.39-.68-1.2-1.65-3.78-2.45a2.37,2.37,0,0,0-1.76.17h0c-.62-2.8-2-5.78-4.65-6.82a8.84,8.84,0,0,0-5.49.1c-2.23.61-4.49,1.6-5.82,3.48l.26-.15a4.49,4.49,0,0,0-3.83-2.2,12.47,12.47,0,0,0-4.71.55,14.49,14.49,0,0,0-4.25,2.66,5.71,5.71,0,0,0-2.22,4.34l-.45-.17a3,3,0,0,0-2.21-.59,7.77,7.77,0,0,0-6.35,11.56l-.08-.09a4.37,4.37,0,0,0-3,2.12,9.64,9.64,0,0,0,4.38,14.34l.37-.09c-1,.12-2.21,2.58-2.68,3.47s-.08,2.27-.07,3.28c0,3,1.31,4.31,2.61,6.21.08.12.75,1.06.89,1s1-.05.91,0l-.48-3.31c.73-6.94,1-12.26,3-17.85a9.39,9.39,0,0,1,2.9-4.45,4.49,4.49,0,0,1,5-.45h0c1.61,1.17,3.48,2.54,5.41,2.07a6.11,6.11,0,0,0,1.53-.66c1.67-.93,3.35-2.2,3.87-4l-.59.06a22.43,22.43,0,0,0,3.71,2.31,7.52,7.52,0,0,0,4.26.72c2.33-.37,4.16-2.15,5.73-3.91v0a3.63,3.63,0,0,1,2.91,1.34c.73.83.81,2.14,1.63,2.87,3,2.64,5.22,12.18,6.07,22"/><circle class="aa" cx="233.82" cy="447.47" r="8.7"/><circle class="aa" cx="257.12" cy="447.47" r="8.7"/></g><g class="ab"><path class="x" d="M290.88,263.4A4,4,0,0,0,289.3,265c-.84,1.88-.84,4-1.34,6a24.23,24.23,0,0,1-2.17,5.11,5.16,5.16,0,0,0,2.38.19c1.53-.11,2.16-.12,3.5-.32a12.32,12.32,0,0,0,4.39-1.6,8.79,8.79,0,0,0,3.37-5.65c0-1.8-.15-2.1-1.17-3.63a16.11,16.11,0,0,0-2.84-2c-1.86-1.32-3.06-.72-4.53.27"/><path class="t" d="M315.48,276.56V266.2a6.81,6.81,0,1,0-13.63,0v10.36c-11.28,2.1-18.28,11.16-18.28,20.21l25.09,3.06,25.09-3.06C333.74,287.72,326.75,278.67,315.48,276.56Z"/><path class="u" d="M302.24,263h12.84v8.3s-7.32,3.21-12.84,0Z"/><path class="v" d="M315.48,276.56V266.2a6.81,6.81,0,1,0-13.63,0v10.36c-11.28,2.1-18.28,11.16-18.28,20.21l25.09,3.06,25.09-3.06C333.74,287.72,326.75,278.67,315.48,276.56Z"/><path class="w" d="M280.08,257.68a6.07,6.07,0,0,0,6.23,6,6.18,6.18,0,0,0,6.29-6,6.07,6.07,0,0,0-6.23-6A6.18,6.18,0,0,0,280.08,257.68Z"/><path class="v" d="M283.57,257.57a14.81,14.81,0,0,1,2.81.08,5,5,0,0,1,2.55,1.11"/><path class="w" d="M337.22,257.68a6.07,6.07,0,0,1-6.23,6,6.18,6.18,0,0,1-6.29-6,6.07,6.07,0,0,1,6.23-6A6.18,6.18,0,0,1,337.22,257.68Z"/><path class="v" d="M333.64,257.57a14.81,14.81,0,0,0-2.81.08,5,5,0,0,0-2.55,1.11"/><rect class="w" x="285.89" y="208.17" width="45.49" height="59.5" rx="20.99" ry="20.99" transform="translate(617.28 475.85) rotate(-180)"/><path class="y" d="M305.8,249.41c1.07,2,1.95,1.85,2.8,2s2.08-.41,2.86-2.27"/><path class="x" d="M314.91,242a2.26,2.26,0,1,0,4.51.14c0-1.32-1-1.79-2.26-1.83S315,240.7,314.91,242Z"/><path class="x" d="M298,242a2.26,2.26,0,1,0,4.51.14c0-1.32-1-1.79-2.26-1.83S298,240.7,298,242Z"/><path class="y" d="M320.21,235.51a3.7,3.7,0,0,0-6.08-.26"/><path class="y" d="M303.25,235.51a3.69,3.69,0,0,0-6.08-.26"/><path class="y" d="M307.2,244.69a8.2,8.2,0,0,0-.57,1.05"/><path class="y" d="M309.25,234.74c.51,4.49,2.66,9.53.16,11.6"/><path class="x" d="M308.19,259.43A5.59,5.59,0,0,0,306,260a3.41,3.41,0,0,0-2.25,2.4,3.58,3.58,0,0,0,1.09,2.54A18.86,18.86,0,0,0,307,267.1a2.29,2.29,0,0,0,1.83.76,2.16,2.16,0,0,0,.82-.43,11.22,11.22,0,0,0,3.17-3.63,2.4,2.4,0,0,0,.34-2,4.22,4.22,0,0,0-1.39-1.49,4.52,4.52,0,0,0-3.57-.84"/><circle class="x" cx="320.4" cy="233.67" r="0.53"/><circle class="x" cx="320.4" cy="237.37" r="0.53"/><path class="ac" d="M317.37,277c0,3.74-3.9,5.93-8.67,5.93S300,280.75,300,277c-10.18,2.7-16.43,11.24-16.43,19.79l25.06,3,25.12-3C333.77,288.25,327.54,279.72,317.37,277Z"/><path class="ad" d="M298.83,276.23c-10.27,3-16.53,11.8-16.53,20.57h16.53Z"/><path class="ad" d="M318.52,276.23c10.27,3,16.53,11.8,16.53,20.57H318.52Z"/><path class="x" d="M330.93,251.7c1.28.87,2.15-15.31,2.37-22.25a43,43,0,0,0-.35-7,14.28,14.28,0,0,0-1.56-4.75,14.77,14.77,0,0,0-4.57-5.5,23.78,23.78,0,0,0-10.79-4l.14-.08a24.66,24.66,0,0,0-13.7-1.23,30.14,30.14,0,0,0-6.83,2.49c-2.36,1.16-4,3.22-5.8,5.18a21.7,21.7,0,0,0-4,8.37c-2.51,10.79-3.28,18,0,28.57l.48.27c1.49-.27,2.63-2.59,3.12-3.9,1.48-4,1-5.92,1.07-9.61.16-5.38,2.59-11.22,7.58-13.25,2.54-1,5.39-.94,8.09-1.4,4.26-.73,8.24-2.19,11.16-5.38l.58-.63a4.87,4.87,0,0,0,.29-5.11l0-.4c1.91,1.29,2.36,5.62,3.17,8,1.81,5.42,4.16,9.51,6.89,14.53a15.63,15.63,0,0,1,2.74,9.49c.09,2.21-.14,6.09-.17,7.62"/></g><g class="ae"><path class="t" d="M63.57,203.8V193.38a6.86,6.86,0,1,0-13.71,0V203.8C38.51,205.91,31.46,215,31.46,224.13l25.24,2.65,25.24-2.65C81.94,215,74.9,205.92,63.57,203.8Z"/><path class="u" d="M50.25,190.12H63.17v8.35s-7.36,3.23-12.91,0Z"/><path class="v" d="M63.57,203.8V193.38a6.86,6.86,0,1,0-13.71,0V203.8C38.51,205.91,31.46,215,31.46,224.13l25.24,2.65,25.24-2.65C81.94,215,74.9,205.92,63.57,203.8Z"/><path class="w" d="M28,184.81a6.1,6.1,0,0,0,6.26,6,6.21,6.21,0,0,0,6.33-6,6.1,6.1,0,0,0-6.26-6A6.21,6.21,0,0,0,28,184.81Z"/><path class="v" d="M31.47,184.69a14.9,14.9,0,0,1,2.83.08,5,5,0,0,1,2.57,1.11"/><path class="w" d="M85.44,184.81a6.1,6.1,0,0,1-6.26,6,6.21,6.21,0,0,1-6.33-6,6.1,6.1,0,0,1,6.26-6A6.21,6.21,0,0,1,85.44,184.81Z"/><path class="v" d="M81.84,184.69a14.9,14.9,0,0,0-2.83.08,5,5,0,0,0-2.57,1.11"/><rect class="w" x="33.81" y="135" width="45.77" height="59.86" rx="19.18" ry="19.18" transform="translate(113.38 329.86) rotate(180)"/><path class="x" d="M53.32,194.86h7a19.46,19.46,0,0,0,19.4-19.4l0-3.19c-11.06,13.62-13.13,3.55-20.06,2.78l-4.58.13c-3.69.13-5.32,5.22-12,5a12.33,12.33,0,0,1-3.34-.44c-1.63-.46-5.85-4.26-5.85-4.26A19.46,19.46,0,0,0,53.32,194.86Z"/><path class="af" d="M53.83,177.24c1.07,2,2,1.86,2.82,2s2.09-.41,2.88-2.29"/><ellipse class="x" cx="65.27" cy="169.12" rx="2.4" ry="2.27" transform="translate(-105.76 229.21) rotate(-88.26)"/><ellipse class="x" cx="48.21" cy="169.12" rx="2.4" ry="2.27" transform="translate(-122.3 212.15) rotate(-88.26)"/><path class="y" d="M68.33,162.5a4.73,4.73,0,0,0-3-1.74,4.75,4.75,0,0,0-3.12,1.48"/><path class="y" d="M51.26,162.5a4.73,4.73,0,0,0-3-1.74,4.75,4.75,0,0,0-3.12,1.48"/><path class="y" d="M55.24,171.74a8.25,8.25,0,0,0-.57,1.06"/><path class="y" d="M57.3,161.73c.52,4.51,2.68,9.59.16,11.67"/><path class="x" d="M31.68,222.29H82a18.71,18.71,0,0,0-.72-3.53H32.4A18.71,18.71,0,0,0,31.68,222.29Z"/><path class="x" d="M33.68,215.59H80a20.83,20.83,0,0,0-2.24-3.53H35.92A20.82,20.82,0,0,0,33.68,215.59Z"/><path class="x" d="M48.24,205.37H44.77A22.91,22.91,0,0,0,39,208.9H51.14A5.52,5.52,0,0,1,48.24,205.37Z"/><path class="x" d="M65.41,205.37a5.52,5.52,0,0,1-2.9,3.53h12.1a22.91,22.91,0,0,0-5.75-3.53Z"/><path class="z" d="M65.54,204.22c0,3.77-3.92,6-8.73,6s-8.73-2.21-8.73-6"/><path class="x" d="M33.81,178.3c-1.53-6-1.57-8.79-1.22-15.15l-.18-5c-.33-2.48,0-3.74.31-6.22.43-3.52,1.25-7.12,3.44-9.91a23.75,23.75,0,0,1,4.14-3.83,15,15,0,0,1,4.19-2.61,20.28,20.28,0,0,1,4.31-1.34c2.26-.17,4.17-.38,6.44-.42,4.29-.08,7.08.12,10.36,1.44,1.63.66,3.88,1.15,5.32,2.16s2.82,1.61,3.84,2.9a26.74,26.74,0,0,1,5.56,12.93c.36,3.28.59,7.51.74,10.8a26.15,26.15,0,0,1-1.23,9.29l-.26-1.55a89.86,89.86,0,0,0-1.61-12c-.49-2.73-1-5.55-2.58-7.83A8.1,8.1,0,0,0,68,148.33a1.53,1.53,0,0,0-.93.36.62.62,0,0,0,0,.9l-.44-.54.79,1.59a2,2,0,0,1,.27,1.66,1.27,1.27,0,0,1-1,.65,3.23,3.23,0,0,1-1.24-.16,15.38,15.38,0,0,1-6.92-4.17l.06-.3a9.09,9.09,0,0,1,2.29,2.92,1.37,1.37,0,0,1,.16.49,1,1,0,0,1-.6.91,2.31,2.31,0,0,1-1.14.15c-2.46-.16-4.67-1.47-6.77-2.74h0a7.07,7.07,0,0,0,1.58,1.43,1.92,1.92,0,0,1,.82,1.85c-.3,1-1.79,1.12-2.75.63-2.71-1.37-3.8-5.24-6.77-5.85a4.86,4.86,0,0,0-4,1.27,13.43,13.43,0,0,0-2.63,3.49A23.79,23.79,0,0,0,35,163.22c-.68,4.29-.61,9.4-.85,13.74"/><ellipse class="x" cx="79.55" cy="190.8" rx="0.93" ry="1.94"/></g><g class="ag"><path class="t" d="M444.12,378V367.66a6.81,6.81,0,0,0-13.63,0V378c-11.28,2.1-18.28,11.16-18.28,20.21h50.18C462.39,389.18,455.39,380.12,444.12,378Z"/><path class="u" d="M430.89,364.41h12.84v8.3s-7.32,3.21-12.84,0Z"/><path class="v" d="M444.12,378V367.66a6.81,6.81,0,0,0-13.63,0V378c-11.28,2.1-18.28,11.16-18.28,20.21h50.18C462.39,389.18,455.39,380.12,444.12,378Z"/><path class="w" d="M408.73,359.14a6.07,6.07,0,0,0,6.23,6,6.18,6.18,0,0,0,6.29-6,6.07,6.07,0,0,0-6.23-6A6.18,6.18,0,0,0,408.73,359.14Z"/><path class="v" d="M412.22,359a14.81,14.81,0,0,1,2.81.08,5,5,0,0,1,2.55,1.11"/><path class="w" d="M465.87,359.14a6.07,6.07,0,0,1-6.23,6,6.18,6.18,0,0,1-6.29-6,6.07,6.07,0,0,1,6.23-6A6.18,6.18,0,0,1,465.87,359.14Z"/><path class="v" d="M462.29,359a14.81,14.81,0,0,0-2.81.08,5,5,0,0,0-2.55,1.11"/><rect class="w" x="414.54" y="309.63" width="45.49" height="59.5" rx="18.23" ry="18.23" transform="translate(874.57 678.76) rotate(-180)"/><path class="x" d="M434.41,353.87a7.16,7.16,0,0,0,4.35.55c1.07-.29,2.65-.69,2.61-2.5a1.69,1.69,0,0,0-2.2-1.59c-2.33.42-2.55-.1-4.17-.18a1.77,1.77,0,0,0-2.06,1.77C432.87,352.91,433.82,353.53,434.41,353.87Z"/><path class="u" d="M440.25,353.91a6.77,6.77,0,0,1-6.2-.17,3.1,3.1,0,0,1,3.06-1.56A3.49,3.49,0,0,1,440.25,353.91Z"/><ellipse class="x" cx="445.82" cy="343.54" rx="2.38" ry="2.26" transform="translate(88.87 778.7) rotate(-88.26)"/><ellipse class="x" cx="428.86" cy="343.54" rx="2.38" ry="2.26" transform="translate(72.43 761.75) rotate(-88.26)"/><path class="y" d="M425.9,341.42a10.22,10.22,0,0,1,2.12,1.23"/><path class="y" d="M448.72,341.42a10.22,10.22,0,0,0-2.12,1.23"/><path class="y" d="M448.85,337a3.7,3.7,0,0,0-6.08-.26"/><path class="y" d="M431.89,337a3.69,3.69,0,0,0-6.08-.26"/><path class="y" d="M435.84,346.15a8.2,8.2,0,0,0-.57,1.05"/><path class="y" d="M437.9,336.2c.51,4.49,2.66,9.53.16,11.6"/><path class="x" d="M446.12,378.44c0,3.76,13.62,17.36-8.67,17.36s-8.69-13.61-8.67-17.37c-6.86.35-10.07,11.24-10.07,19.79l18.74,2.72,18.44-2.72C455.88,389.68,451.83,378.44,446.12,378.44Z"/><path class="ah" d="M428.2,331.26a20.76,20.76,0,0,0,12.45-2.73,32.43,32.43,0,0,0,9.32-8.15l.05-.45c4.79,8.93,9.69,18.23,10.24,28.35l-.22,2.85a21,21,0,0,0,.78-13.16l.78,5.86c5.11-10.21,2.85-19.28-2.38-27.18-1.84-2.79-4.45-5.39-7.75-5.87l-.83.41,1.06-.34a20.33,20.33,0,0,0-13-3.95,37.89,37.89,0,0,0-13.44,3.21c-1,.4-2.07,1-2.32,2l-.18-.38c.16-2.06.29-4.23-.58-6.1a1.07,1.07,0,0,0-.35-.47.88.88,0,0,0-.75,0c-.61.21-1.42.16-1.65.77a9.47,9.47,0,0,0,.11,2.52,20.91,20.91,0,0,0,.63,5h-.24a22,22,0,0,0-3.28-3.33,1,1,0,0,0-1.21.09c-.4.28.07,1.94.19,2.41a4.18,4.18,0,0,0,2.32,2.93l.19.11c-5.9,1.42-10.84,14.48-5.9,21.42l.51.87a35,35,0,0,0,1.67,15.28l.6-.83c.48-2.59,1-5.19,1.66-7.72.32-1.15.69-2.28.94-3.44a18.86,18.86,0,0,0,.44-4.6l-.39.09a25.48,25.48,0,0,0,15.12-10.1"/><circle class="u" cx="450.62" cy="351.04" r="4.42"/><circle class="u" cx="424.42" cy="351.04" r="4.42"/><circle class="x" cx="448.25" cy="349.07" r="0.42"/><circle class="x" cx="451.32" cy="347.03" r="0.42"/><circle class="x" cx="451.32" cy="350.09" r="0.42"/><circle class="x" cx="426.76" cy="349.07" r="0.42"/><circle class="x" cx="423.7" cy="347.03" r="0.42"/><circle class="x" cx="423.7" cy="350.09" r="0.42"/><ellipse class="x" cx="463.87" cy="354.85" rx="1.73" ry="0.85" transform="translate(-118.98 391.88) rotate(-41.05)"/><circle class="x" cx="459.61" cy="362.82" r="1.2"/><circle class="x" cx="415.25" cy="362.82" r="1.2"/></g><g class="ai"><path class="aj" d="M166,386.59c1.65-.3,3.42-.93,4.22-2.41a5.55,5.55,0,0,0-.11-4.5,16.54,16.54,0,0,1-1.4-4.41c-.13-1.8.63-3.56.7-5.36.09-2.34-1-4.55-1.64-6.79s-.84-4.94.73-6.68l.11,0a22.69,22.69,0,0,0-.45-7.43,45,45,0,0,0-2.67-10.44,30.18,30.18,0,0,0-6.14-8.79,14.58,14.58,0,0,0-5.76-4,13.85,13.85,0,0,0-7.25.06c-8,1.8-15,6.36-21.8,10.84a8.48,8.48,0,0,0-1.86,1.49c-1.25,1.47-1.36,3.57-2.17,5.32-.48,1-1.21,1.95-1.74,3a4.19,4.19,0,0,0-.47,3.3l-.41-.31a29.57,29.57,0,0,1,.89,7.31,8.56,8.56,0,0,1-.22,2.16,12.9,12.9,0,0,1-.84,2,6.38,6.38,0,0,0-.71,4.26c.26,1,.9,1.77,1.24,2.71a8.08,8.08,0,0,1-.09,4.52,37.4,37.4,0,0,1-1.53,5,12.34,12.34,0,0,0-1,3.23,5.4,5.4,0,0,0,2.41,4.94h0a45.15,45.15,0,0,0,6.67.86c8.05.18,16.1-.19,24.15-.34,5.21-.1,10.42-.1,15.62.25l2.87.21"/><path class="ak" d="M149.88,371.84V361.42a6.86,6.86,0,1,0-13.71,0v10.42c-11.35,2.11-18.39,11.22-18.39,20.33l25.37,2.16,25.11-2.16C168.26,383.07,161.22,374,149.88,371.84Z"/><path class="u" d="M136.57,358.15h12.91v8.35s-7.36,3.23-12.91,0Z"/><path class="v" d="M149.88,371.84V361.42a6.86,6.86,0,1,0-13.71,0v10.42c-11.35,2.11-18.39,11.22-18.39,20.33l25.37,2.16,25.11-2.16C168.26,383.07,161.22,374,149.88,371.84Z"/><path class="w" d="M114.28,352.85a6.1,6.1,0,0,0,6.26,6,6.21,6.21,0,0,0,6.33-6,6.1,6.1,0,0,0-6.26-6A6.21,6.21,0,0,0,114.28,352.85Z"/><path class="v" d="M117.78,352.73a14.9,14.9,0,0,1,2.83.08,5,5,0,0,1,2.57,1.11"/><path class="w" d="M171.76,352.85a6.1,6.1,0,0,1-6.26,6,6.21,6.21,0,0,1-6.33-6,6.1,6.1,0,0,1,6.26-6A6.21,6.21,0,0,1,171.76,352.85Z"/><path class="v" d="M168.16,352.73a14.9,14.9,0,0,0-2.83.08,5,5,0,0,0-2.57,1.11"/><rect class="w" x="120.12" y="303.04" width="45.77" height="59.86" rx="18" ry="18" transform="translate(286.01 665.94) rotate(180)"/><path class="y" d="M140.14,344.53c1.07,2,2,1.86,2.82,2s2.09-.41,2.88-2.29"/><ellipse class="x" cx="151.58" cy="337.16" rx="2.4" ry="2.27" transform="translate(-190.03 478.41) rotate(-88.26)"/><ellipse class="x" cx="134.52" cy="337.16" rx="2.4" ry="2.27" transform="translate(-206.57 461.36) rotate(-88.26)"/><path class="y" d="M154.64,330.54a3.72,3.72,0,0,0-6.11-.26"/><path class="y" d="M137.58,330.54a3.72,3.72,0,0,0-6.11-.26"/><path class="y" d="M141.55,339.78a8.25,8.25,0,0,0-.57,1.06"/><path class="y" d="M143.62,329.77c.52,4.51,2.68,9.59.16,11.67"/><path class="w" d="M151.88,372.26c0,3.79,13.7,17.47-8.73,17.47s-8.74-13.69-8.73-17.47c-6.9.35-10.14,11.31-10.14,19.91l18.85,2.16,18.56-2.16C161.7,383.58,157.63,372.26,151.88,372.26Z"/><path class="x" d="M133.27,371.87c-10.33,3-16.63,11.87-16.63,20.69h16.63Z"/><path class="x" d="M153.08,371.87c10.33,3,16.63,11.87,16.63,20.69H153.08Z"/><circle class="aa" cx="131.3" cy="337.55" r="8.75"/><circle class="aa" cx="154.75" cy="337.55" r="8.75"/><path class="u" d="M169.29,324.17a31.3,31.3,0,0,1-1.7-4.4,23.58,23.58,0,0,1-.34-3.28c-.13-1.69-.87-2.07-1.36-3.69a10.61,10.61,0,0,0-2.41-3.52,11.57,11.57,0,0,0-4.31-3.37c-4.44-1.71-7.31-4.08-12.67-2.87l-.43-.33c-5.26-1.34-10.51.27-15.66,2-4.56,1.51-7.16,3.81-9.82,7.81-1,1.49-2.61,3.74-2.8,5.51-.4,3.9.82,6.25.09,10.11-.36,1.89-2.88,8.43-3,10.36-.37,4.22,2.1,12.74,2.3,14.23.13,1-.48,4.85-.09,6.82.5,2.47,3.61,7.8,3.92,9,.49,2,.49,5,1.53,7.16,2.46,5,.61,10.54-.11,12.35,6.82,0,6.95-11.2,3.38-16.2-1.34-1.88-2.47-16.59-2.47-16.59l-.19-2c.11-3.71-2-15.5.08-19.93s4.52-9,8.93-11.15c2.16-1,4.49-1.74,6.62-2.85a18.48,18.48,0,0,0,8.1-8.46h0c-.23,3.12,2.43,5.67,5.07,7.36,3.52,2.24,7.51,3.94,10.21,7.11a17.79,17.79,0,0,1,3.78,9.35,53.05,53.05,0,0,1,0,10.21l0,1.6c.1.53,2.17.34,2.27.87,1.57-.45.86-2.22,1.2-3.81s-.17-3.15-.21-4.74c-.06-2.15.7-4.22,1-6.34A16.2,16.2,0,0,0,169.29,324.17Z"/><path class="v" d="M169.29,324.17a31.3,31.3,0,0,1-1.7-4.4,23.58,23.58,0,0,1-.34-3.28c-.13-1.69-.87-2.07-1.36-3.69a10.61,10.61,0,0,0-2.41-3.52,11.57,11.57,0,0,0-4.31-3.37c-4.44-1.71-7.31-4.08-12.67-2.87l-.43-.33c-5.26-1.34-10.51.27-15.66,2-4.56,1.51-7.16,3.81-9.82,7.81-1,1.49-2.61,3.74-2.8,5.51-.4,3.9.82,6.25.09,10.11-.36,1.89-2.88,8.43-3,10.36-.37,4.22,2.1,12.74,2.3,14.23.13,1-.48,4.85-.09,6.82.5,2.47,3.61,7.8,3.92,9,.49,2,.49,5,1.53,7.16,2.46,5,.61,10.54-.11,12.35,6.82,0,6.95-11.2,3.38-16.2-1.34-1.88-2.47-16.59-2.47-16.59l-.19-2c.11-3.71-2-15.5.08-19.93s4.52-9,8.93-11.15c2.16-1,4.49-1.74,6.62-2.85a18.48,18.48,0,0,0,8.1-8.46h0c-.23,3.12,2.43,5.67,5.07,7.36,3.52,2.24,7.51,3.94,10.21,7.11a17.79,17.79,0,0,1,3.78,9.35,53.05,53.05,0,0,1,0,10.21l0,1.6c.1.53,2.17.34,2.27.87,1.57-.45.86-2.22,1.2-3.81s-.17-3.15-.21-4.74c-.06-2.15.7-4.22,1-6.34A16.2,16.2,0,0,0,169.29,324.17Z"/></g><g class="al"><path class="x" d="M206.67,109.59c-.57,7.41-.49,15-1,22.45-.15,2.12-.31,4.4.81,6.2s3.29,2.71,5.35,3.31c7.93,2.29,10.12.88,19.55.17,1.94-.15,6-1.37,7.92-.85.67.19,3.78-.74,4.41-.45,1.56.73,2.17.26,3.89.31.93,0,3,.82,3.81.37,1.61-.88,2.21-2.88,2.46-4.7.67-4.83-.06-9.73-.78-14.55-.85-5.64-1.7-11.3-3.1-16.83-.83-3.29-2-6.73-4.57-8.92a13.93,13.93,0,0,0-6.94-2.76c-6.87-1.07-13.92.32-20.5,2.59a10.82,10.82,0,0,0-3.29,1.61,11.65,11.65,0,0,0-2.73,3.76c-1.77,3.3-3.5,5-5.27,8.29"/><ellipse class="am" cx="227.91" cy="74.65" rx="24.29" ry="20.79" transform="translate(-9.35 39.69) rotate(-9.75)"/><path class="am" d="M260.89,65.54c2.92,9.4-10.2,19-28.65,23.67s-36,2.17-37.32-7.58,12-18.54,30.42-23.19S258.18,56.79,260.89,65.54Z"/><path class="ak" d="M237.58,129.92V119.56a6.81,6.81,0,1,0-13.63,0v10.36c-11.28,2.1-18.28,11.16-18.28,20.21l25.09,6.58,25.09-6.58C255.84,141.07,248.85,132,237.58,129.92Z"/><path class="u" d="M224.34,116.31h12.84v8.3s-7.32,3.21-12.84,0Z"/><path class="v" d="M237.58,129.92V119.56a6.81,6.81,0,1,0-13.63,0v10.36c-11.28,2.1-18.28,11.16-18.28,20.21l25.09,4.17,25.09-4.17C255.84,141.07,248.85,132,237.58,129.92Z"/><path class="ak" d="M202.18,111a6.07,6.07,0,0,0,6.23,6,6.18,6.18,0,0,0,6.29-6,6.07,6.07,0,0,0-6.23-6A6.18,6.18,0,0,0,202.18,111Z"/><path class="ak" d="M259.32,111a6.07,6.07,0,0,1-6.23,6,6.18,6.18,0,0,1-6.29-6,6.07,6.07,0,0,1,6.23-6A6.18,6.18,0,0,1,259.32,111Z"/><path class="v" d="M202.18,111a6.07,6.07,0,0,0,6.23,6,6.18,6.18,0,0,0,6.29-6,6.07,6.07,0,0,0-6.23-6A6.18,6.18,0,0,0,202.18,111Z"/><path class="v" d="M205.67,110.92a14.81,14.81,0,0,1,2.81.08,5,5,0,0,1,2.55,1.11"/><path class="v" d="M259.32,111a6.07,6.07,0,0,1-6.23,6,6.18,6.18,0,0,1-6.29-6,6.07,6.07,0,0,1,6.23-6A6.18,6.18,0,0,1,259.32,111Z"/><path class="v" d="M255.74,110.92a14.81,14.81,0,0,0-2.81.08,5,5,0,0,0-2.55,1.11"/><rect class="an" x="208.01" y="61.53" width="45.49" height="59.5" rx="22.75" ry="22.75" transform="translate(461.52 182.56) rotate(-180)"/><path class="x" d="M230.93,105.35l-.33,0-.29,0c-.82-.11-1.84-.24-2.92-2.25a.57.57,0,1,1,1-.54c.8,1.49,1.39,1.57,2.07,1.66l.33,0c.51.1,1.58-.36,2.24-1.93a.57.57,0,1,1,1,.44C233.31,104.57,232,105.35,230.93,105.35Z"/><path class="x" d="M237,95.37a2.26,2.26,0,1,0,4.51.14,2.29,2.29,0,0,0-2.26-2.34A2.17,2.17,0,0,0,237,95.37Z"/><path class="x" d="M220.05,95.37a2.26,2.26,0,1,0,4.51.14,2.29,2.29,0,0,0-2.26-2.34A2.17,2.17,0,0,0,220.05,95.37Z"/><path class="x" d="M242.31,89.43a.57.57,0,0,1-.45-.21,4.16,4.16,0,0,0-2.55-1.51A4,4,0,0,0,236.64,89a.57.57,0,0,1-.83-.77,4.25,4.25,0,0,1,6.94.3.57.57,0,0,1-.45.92Z"/><path class="x" d="M225.35,89.43a.57.57,0,0,1-.45-.21,4.16,4.16,0,0,0-2.55-1.51A4.34,4.34,0,0,0,219.68,89a.57.57,0,0,1-.83-.77,5.18,5.18,0,0,1,3.53-1.65,5.24,5.24,0,0,1,3.4,1.94.57.57,0,0,1-.45.92Z"/><path class="x" d="M229.07,97.82c-.47.44-.77.7-.65,1.36a.32.32,0,0,0,.47.19c.53-.31.55-.69.71-1.24a.32.32,0,0,0-.53-.31Z"/><path class="x" d="M231.51,100.26a.57.57,0,0,1-.36-1c1.55-1.28.95-4.21.31-7.3-.26-1.25-.52-2.53-.67-3.79a.57.57,0,0,1,.5-.63.58.58,0,0,1,.63.5c.14,1.2.4,2.47.65,3.69.71,3.44,1.39,6.69-.7,8.41A.56.56,0,0,1,231.51,100.26Z"/><path class="u" d="M239.43,130.34c0,3.76,13.62,17.36-8.67,17.36s-8.69-13.61-8.67-17.37c-6.86.35-10.07,11.24-10.07,19.79l18.29,2.12,18.9-2.12C249.19,141.58,245.14,130.33,239.43,130.34Z"/><path class="v" d="M239.43,130.34c0,3.76,13.62,17.36-8.67,17.36s-8.69-13.61-8.67-17.37c-6.86.35-10.07,11.24-10.07,19.79l18.29,2.12,18.9-2.12C249.19,141.58,245.14,130.33,239.43,130.34Z"/><path class="x" d="M209,105c-1.24.49-3.36.72-4.22,1.12-.35.16-.88-1.89-.92-2.27-.69-7.67-.7-13.41.86-20.94,4.22-20.36,15.73-23.08,25.54-21.75h0c6.59-1.21,13.87.81,18.35,5.79,5,5.53,5.92,13.51,6.38,20.94a148.87,148.87,0,0,1,0,17.53c-.41-.09-.51-.15-.92-.23l-1.27-.19c-.21-.43.22-.76,0-1.2-2.73-5.78-5.4-11.86-8.14-17.6-.67-1.41-1.34-2.81-2.13-4.16a54.68,54.68,0,0,0-4.52-6.26l-5-6.3c-.52-.65-1.27-1.15-1.5-1.95-.31-1.11-.12-2.45-.51-3.79a6.1,6.1,0,0,0-.62,3.95l-.91,1.28a93.67,93.67,0,0,0-21.25,34.24A6.92,6.92,0,0,0,209,105Z"/></g></svg>