<svg xmlns="http://www.w3.org/2000/svg" viewBox="0 0 241 241"><defs><style>.a,.c,.d{fill:none;}.b{fill:#fff;}.c,.d{stroke:#4d4d4d;stroke-linejoin:round;stroke-width:0.75px;}.d{stroke-linecap:round;}.e{fill:#fd0d51;}.f{fill:#fde803;}.g{fill:gray;}.h{fill:#ccc;}.i{fill:#333;}</style></defs><title>Recurso 3</title><rect class="a" width="241" height="241"/><rect class="b" x="61.73" y="39.64" width="117.54" height="171.71" rx="8" ry="8"/><path class="c" d="M167.57,200.2l-.39.37-1.76,1.69-2.32,2.24v-2.77h-.3a6.55,6.55,0,0,0-5.63,3.22,5.48,5.48,0,0,1-.05-.73,5.69,5.69,0,0,1,5.68-5.68h.3v-2.63Z"/><path class="c" d="M123.39,195.84h-6.13a1.58,1.58,0,0,0-1.58,1.58v4.29a1.58,1.58,0,0,0,1.58,1.58h1.42V205l1.89-1.68h2.83a1.58,1.58,0,0,0,1.58-1.58v-4.29A1.58,1.58,0,0,0,123.39,195.84Z"/><path class="d" d="M79.48,198.22l.27-1.73-.54-1.66H78.09v1.51s-1.26,2.87-2.11,2.87v4h.31l.65.4H81s1-.2,1-.82-.7-.62-.7-.62.83.12.83-.59-.56-.59-.56-.59.83,0,.83-.59-.68-.68-.68-.68.84.13.84-.66-.58-.79-.58-.79Z"/><rect class="d" x="74.03" y="198.83" width="1.95" height="4.72" rx="0.5" ry="0.5"/><rect class="e" x="61.73" y="104.67" width="117.54" height="82.59"/><path class="f" d="M173.35,187.26S155.22,151.08,143,151.08c-9.66,0-12.28,13-19.79,13-8.47,0-9.52-28-22.88-28-14.59,0-31.83,51.16-31.83,51.16Z"/><circle class="f" cx="153" cy="126.5" r="7.12"/><rect class="g" x="69.52" y="82.06" width="101.48" height="5.05"/><rect class="g" x="69.52" y="90.56" width="101.48" height="5.05"/><rect class="h" x="97.67" y="69.02" width="21.96" height="3.01"/><rect class="i" x="97.67" y="59.46" width="57.08" height="5.05"/><circle class="h" cx="80.09" cy="62.81" r="10.57"/></svg>