<svg xmlns="http://www.w3.org/2000/svg" xmlns:xlink="http://www.w3.org/1999/xlink" viewBox="0 0 604.02 280.05"><defs><style>.a,.f,.v,.z{fill:none;}.b{fill:#b3b3b3;}.c{fill:#89229b;}.d{fill:#690f7c;}.e{fill:#f1d5d2;}.f,.v{stroke:#2b343b;}.f,.v,.z{stroke-linecap:round;}.f{stroke-miterlimit:10;stroke-width:3px;}.g{fill:#f88e0f;}.h{fill:#fc9f1e;}.i{fill:#fdfdfc;}.j{fill:#d6c3c0;}.k{fill:#00bcd4;}.l{fill:#119ba5;}.m{fill:#fd0d51;}.n{fill:#d61d5b;}.o{fill:#2a2625;}.p{fill:#cee2ea;}.q{fill:#f44336;}.r{font-size:11px;font-family:Montserrat-Bold, Montserrat;font-weight:700;}.r,.y{fill:#fff;}.s{letter-spacing:-0.01em;}.t{letter-spacing:0em;}.u{letter-spacing:-0.02em;}.v,.z{stroke-linejoin:round;}.v{stroke-width:5px;}.w{clip-path:url(#a);}.x{opacity:0.2;}.z{stroke:#e6e6e6;}.aa{fill:#fde803;}.ab{fill:#f9e453;}.ac{fill:#ff4382;}</style><clipPath id="a"><rect class="a" x="238.55" width="134.51" height="266.77" rx="11.75" ry="11.75"/></clipPath></defs><title>Recurso 6</title><ellipse class="b" cx="302.01" cy="252.04" rx="302.01" ry="28.01"/><polygon class="c" points="386.21 81.05 473 77.05 469.36 233 378.02 221.7 386.21 81.05"/><polyline class="d" points="473 77.05 486.01 81.86 496.79 80.1 502.71 224.01 469.36 233"/><circle class="e" cx="455.91" cy="91.97" r="2.88"/><circle class="e" cx="408.34" cy="93.16" r="2.88"/><path class="f" d="M408.34,93c0,34.4,39.44,40.36,47.56-1.06"/><polygon class="g" points="450.77 95.69 466.75 95.99 474.01 94.15 472.97 249.22 440.36 243.54 450.77 95.69"/><polygon class="h" points="474.01 94.15 554.96 98.41 556.24 231.03 472.97 249.22 474.01 94.15"/><circle class="e" cx="535.98" cy="112.99" r="2.88"/><circle class="e" cx="495.52" cy="110.1" r="2.88"/><path class="f" d="M495.52,110.42C506,156,543.07,151.9,536,113"/><polygon class="i" points="365.02 131.5 423.18 130.37 415.55 258.89 356.2 248.02 365.02 131.5"/><polygon class="j" points="428.15 131.43 432.57 130.99 441.52 251.03 415.55 258.89 423.18 130.37 428.15 131.43"/><circle class="e" cx="400.71" cy="143.01" r="2.88"/><path class="f" d="M400.83,143.74c-8.14,42.23-48.8,40.9-40.47-3.61"/><path class="k" d="M483,143.17l10.77,1.73,7.38-2.88,64.87,3.14,5.84,98.54L504,260l-18.35-5.06S480,171.64,483,143.17Z"/><path class="l" d="M501.18,142l-7.38,2.88L483,143.17s-1.33,72.94,2.67,111.74L504,260Z"/><circle class="e" cx="519.48" cy="157.97" r="2.88"/><circle class="e" cx="552.48" cy="159.31" r="2.88"/><path class="f" d="M519.48,158.07c2.06,23.4,36.38,28.13,32.73.93"/><polygon class="m" points="429.1 167.84 490.04 170.09 497.09 265.03 433.9 267.75 414.74 264.53 416.12 169.49 425.77 171.19 429.1 167.84"/><polygon class="n" points="416.12 169.49 425.77 171.19 429.1 167.84 433.9 267.75 414.74 264.53 416.12 169.49"/><circle class="e" cx="445.53" cy="178.17" r="2.88"/><circle class="e" cx="477.38" cy="180.21" r="2.88"/><path class="f" d="M445.53,178.17c7.25,32.62,33.87,32,31.73,1.81"/><polygon class="c" points="223.45 81.05 136.67 77.05 140.31 233 231.64 221.7 223.45 81.05"/><polyline class="d" points="136.67 77.05 123.65 81.86 112.87 80.1 106.95 224.01 140.31 233"/><circle class="e" cx="153.76" cy="91.97" r="2.88"/><circle class="e" cx="201.32" cy="93.16" r="2.88"/><path class="f" d="M201.32,93c0,34.4-39.44,40.36-47.56-1.06"/><polygon class="g" points="158.89 95.69 142.91 95.99 135.66 94.15 136.69 249.22 169.31 243.54 158.89 95.69"/><polygon class="h" points="135.66 94.15 54.71 98.41 53.43 231.03 136.69 249.22 135.66 94.15"/><circle class="e" cx="73.69" cy="112.99" r="2.88"/><circle class="e" cx="114.14" cy="110.1" r="2.88"/><path class="f" d="M114.14,110.42C103.64,156,66.6,151.9,73.65,113"/><polygon class="i" points="244.64 131.5 186.48 130.37 194.12 258.89 253.47 248.02 244.64 131.5"/><polygon class="j" points="181.52 131.43 177.09 130.99 168.14 251.03 194.12 258.89 186.48 130.37 181.52 131.43"/><circle class="e" cx="208.96" cy="143.01" r="2.88"/><path class="f" d="M208.84,143.74c8.14,42.23,48.8,40.9,40.47-3.61"/><path class="k" d="M126.64,143.17l-10.77,1.73L108.49,142l-64.87,3.14-5.84,98.54L105.62,260,124,254.91S129.64,171.64,126.64,143.17Z"/><path class="l" d="M108.49,142l7.38,2.88,10.77-1.73S128,216.11,124,254.91L105.62,260Z"/><circle class="e" cx="90.19" cy="157.97" r="2.88"/><circle class="e" cx="57.19" cy="159.31" r="2.88"/><path class="f" d="M90.19,158.07c-2.06,23.4-36.38,28.13-32.73.93"/><polygon class="m" points="180.56 167.84 119.63 170.09 112.57 265.03 175.76 267.75 194.93 264.53 193.55 169.49 183.89 171.19 180.56 167.84"/><polygon class="n" points="193.55 169.49 183.89 171.19 180.56 167.84 175.76 267.75 194.93 264.53 193.55 169.49"/><circle class="e" cx="164.14" cy="178.17" r="2.88"/><circle class="e" cx="132.28" cy="180.21" r="2.88"/><path class="f" d="M164.14,178.17c-7.25,32.62-33.87,32-31.73,1.81"/><rect class="o" x="238.55" width="134.51" height="266.77" rx="11.75" ry="11.75"/><rect class="p" x="244.84" y="26.59" width="121.94" height="234.3" rx="8.18" ry="8.18"/><path class="q" d="M334.82,90.68a51.43,51.43,0,0,0-17.43-5.26,11.86,11.86,0,0,1-22.2,0,51.43,51.43,0,0,0-17.43,5.26L267.14,109l12.41,7.17s2.69-4.68,4.7-4.68V154h44.05V111.53c2,0,4.7,4.68,4.7,4.68L345.42,109Z"/><rect class="h" x="271.85" y="215.58" width="67.47" height="22.63" rx="6.36" ry="6.36"/><text class="r" transform="translate(275.87 231.15)">B<tspan class="s" x="8.42" y="0">U</tspan><tspan class="t" x="16.97" y="0">Y N</tspan><tspan class="u" x="36.41" y="0">O</tspan><tspan x="45.44" y="0">W</tspan></text><polyline class="v" points="261.65 120.66 256.27 127.96 261.65 134.45"/><polyline class="v" points="349.63 134.45 355 127.15 349.63 120.66"/><g class="w"><g class="x"><rect class="y" x="143.57" y="126.54" width="312.74" height="46.65" transform="matrix(0.87, -0.5, 0.5, 0.87, -34.75, 170.05)"/><rect class="y" x="166.1" y="176.18" width="312.74" height="25.44" transform="translate(-51.25 186.54) rotate(-30)"/></g></g><line class="z" x1="287.32" y1="8.36" x2="318.72" y2="8.36"/><path class="aa" d="M249.47,42.49H272a0,0,0,0,1,0,0V54.66a11.26,11.26,0,0,1-11.26,11.26h0a11.26,11.26,0,0,1-11.26-11.26V42.49a0,0,0,0,1,0,0Z"/><path class="aa" d="M294.49,42.49H317a0,0,0,0,1,0,0V54.66a11.26,11.26,0,0,1-11.26,11.26h0a11.26,11.26,0,0,1-11.26-11.26V42.49A0,0,0,0,1,294.49,42.49Z"/><path class="aa" d="M339.52,42.49H362a0,0,0,0,1,0,0V54.66a11.26,11.26,0,0,1-11.26,11.26h0a11.26,11.26,0,0,1-11.26-11.26V42.49A0,0,0,0,1,339.52,42.49Z"/><path class="m" d="M227,42.49h22.51a0,0,0,0,1,0,0V54.66a11.26,11.26,0,0,1-11.26,11.26h0A11.26,11.26,0,0,1,227,54.66V42.49A0,0,0,0,1,227,42.49Z"/><path class="m" d="M272,42.49h22.51a0,0,0,0,1,0,0V54.66a11.26,11.26,0,0,1-11.26,11.26h0A11.26,11.26,0,0,1,272,54.66V42.49A0,0,0,0,1,272,42.49Z"/><path class="m" d="M317,42.49h22.51a0,0,0,0,1,0,0V54.66a11.26,11.26,0,0,1-11.26,11.26h0A11.26,11.26,0,0,1,317,54.66V42.49A0,0,0,0,1,317,42.49Z"/><path class="m" d="M362,42.49h22.51a0,0,0,0,1,0,0V54.66a11.26,11.26,0,0,1-11.26,11.26h0A11.26,11.26,0,0,1,362,54.66V42.49a0,0,0,0,1,0,0Z"/><polygon class="ab" points="261.42 17.71 279.15 17.71 271.98 42.48 249.47 42.48 261.42 17.71"/><polygon class="ab" points="296.88 17.71 314.62 17.71 317.01 42.48 294.49 42.48 296.88 17.71"/><polygon class="ab" points="332.35 17.71 350.08 17.71 362.03 42.48 339.52 42.48 332.35 17.71"/><polygon class="ac" points="243.69 17.71 261.42 17.71 249.47 42.48 226.95 42.48 243.69 17.71"/><polygon class="ac" points="279.15 17.71 296.88 17.71 294.49 42.48 271.98 42.48 279.15 17.71"/><polygon class="ac" points="314.62 17.71 332.35 17.71 339.52 42.48 317.01 42.48 314.62 17.71"/><polygon class="ac" points="350.08 17.71 367.81 17.71 384.55 42.48 362.03 42.48 350.08 17.71"/></svg>