<svg xmlns="http://www.w3.org/2000/svg" viewBox="0 0 241 241"><defs><style>.a,.c,.d,.j{fill:none;}.b,.e{fill:#fff;}.c,.d{stroke:#4d4d4d;stroke-linejoin:round;stroke-width:0.75px;}.d{stroke-linecap:round;}.e,.j{stroke:#bdccd4;stroke-miterlimit:10;}.f{fill:#fd0d51;}.g{fill:#fde803;}.h{fill:#666;}.i{fill:#b3b3b3;}.k{fill:#ccc;}.l{fill:#333;}</style></defs><title>Recurso 4</title><rect class="a" width="241" height="241"/><rect class="b" x="61.73" y="40.64" width="117.54" height="171.71" rx="8" ry="8"/><path class="c" d="M167.57,201.2l-.39.37-1.76,1.69-2.32,2.24v-2.77h-.3a6.55,6.55,0,0,0-5.63,3.22,5.48,5.48,0,0,1-.05-.73,5.69,5.69,0,0,1,5.68-5.68h.3v-2.63Z"/><path class="c" d="M123.39,196.84h-6.13a1.58,1.58,0,0,0-1.58,1.58v4.29a1.58,1.58,0,0,0,1.58,1.58h1.42V206l1.89-1.68h2.83a1.58,1.58,0,0,0,1.58-1.58v-4.29A1.58,1.58,0,0,0,123.39,196.84Z"/><path class="d" d="M79.48,199.22l.27-1.73-.54-1.66H78.09v1.51s-1.26,2.87-2.11,2.87v4h.31l.65.4H81s1-.2,1-.82-.7-.62-.7-.62.83.12.83-.59-.56-.59-.56-.59.83,0,.83-.59-.68-.68-.68-.68.84.13.84-.66-.58-.79-.58-.79Z"/><rect class="d" x="74.03" y="199.83" width="1.95" height="4.72" rx="0.5" ry="0.5"/><rect class="b" y="81.21" width="241" height="110.2"/><rect class="e" x="163.25" y="85.26" width="73.88" height="102.09"/><rect class="f" x="163.25" y="85.26" width="73.88" height="73.88"/><path class="g" d="M237.13,159.14s-12.77-25.49-21.39-25.49c-6.81,0-8.65,9.15-13.94,9.15-6,0-6.71-19.7-16.12-19.7-10.28,0-22.43,36-22.43,36Z"/><circle class="g" cx="222.79" cy="116.33" r="5.01"/><rect class="h" x="171.54" y="165.24" width="57.29" height="5.73"/><rect class="i" x="171.54" y="176.53" width="28.48" height="3.27"/><rect class="j" x="163.25" y="85.26" width="73.88" height="102.09"/><rect class="e" x="83.56" y="85.26" width="73.88" height="102.09"/><rect class="f" x="83.56" y="85.26" width="73.88" height="73.88"/><path class="g" d="M157.44,159.14S144.67,133.65,136,133.65c-6.81,0-8.65,9.15-13.94,9.15-6,0-6.71-19.7-16.12-19.7-10.28,0-22.43,36-22.43,36Z"/><circle class="g" cx="143.1" cy="116.33" r="5.01"/><rect class="h" x="91.85" y="165.24" width="57.29" height="5.73"/><rect class="i" x="91.85" y="176.53" width="28.48" height="3.27"/><rect class="j" x="83.56" y="85.26" width="73.88" height="102.09"/><rect class="e" x="3.87" y="85.26" width="73.88" height="102.09"/><rect class="f" x="3.87" y="85.26" width="73.88" height="73.88"/><path class="g" d="M77.75,159.14S65,133.65,56.36,133.65c-6.81,0-8.65,9.15-13.94,9.15-6,0-6.71-19.7-16.12-19.7-10.28,0-22.43,36-22.43,36Z"/><circle class="g" cx="63.42" cy="116.33" r="5.01"/><rect class="h" x="12.17" y="165.24" width="57.29" height="5.73"/><rect class="i" x="12.17" y="176.53" width="28.48" height="3.27"/><rect class="j" x="3.87" y="85.26" width="73.88" height="102.09"/><rect class="k" x="96.93" y="70.02" width="21.96" height="3.01"/><rect class="l" x="96.93" y="60.46" width="57.08" height="5.05"/><circle class="k" cx="79.36" cy="63.81" r="10.57"/></svg>