<svg xmlns="http://www.w3.org/2000/svg" viewBox="0 0 241 241"><defs><style>.a,.d,.g,.i,.o,.q{fill:none;}.b,.k{fill:#fff;}.b,.d,.e,.g,.h,.i,.j,.k,.l{stroke:#2b343b;}.b,.d,.e,.g,.h,.l,.o,.q{stroke-linecap:round;}.b,.d,.e,.g,.h,.i,.l,.o,.q{stroke-linejoin:round;}.b,.d,.e,.h,.k,.l,.q{stroke-width:2px;}.c{fill:#ffaa96;}.e{fill:#f9fbfc;}.f,.j{fill:#2b343b;}.g{stroke-width:1.5px;}.h,.m{fill:#fd0d51;}.i{stroke-width:0.61px;}.j,.k{stroke-miterlimit:10;}.j{stroke-width:0.39px;}.l{fill:#4d4d4d;}.n{fill:#ed1e79;}.o{stroke:#ff7bac;}.p{fill:#bdccd4;opacity:0.3;}.q{stroke:#fff;}</style></defs><title>Recurso 5</title><rect class="a" width="241" height="241"/><path class="b" d="M93.87,145c-.27,2.1-.49,4.46-.71,6.85l1.67,14c-.45,5-.8,10.94-1.33,16s-4.19,10.21-5.11,15.41l.17,2c-.48,2.72-3.26,2.62-6,2.15a5,5,0,0,1-3.84-3.23,70.34,70.34,0,0,1-3.54-16.28,101.31,101.31,0,0,1-.38-16.52,76.5,76.5,0,0,1,2.66-16.65,44.4,44.4,0,0,1,3.32-8.48C81.55,138.84,93.87,145,93.87,145Z"/><path class="b" d="M136.88,145c.27,2.1.49,4.46.71,6.85l-1.67,14c.45,5,.8,10.94,1.33,16s4.19,10.21,5.11,15.41l-.17,2c.48,2.72,3.26,2.62,6,2.15A5,5,0,0,0,152,198.2a70.34,70.34,0,0,0,3.54-16.28,101.31,101.31,0,0,0,.38-16.52,76.5,76.5,0,0,0-2.66-16.65,44.4,44.4,0,0,0-3.32-8.48C149.2,138.84,136.88,145,136.88,145Z"/><path class="b" d="M116.29,135.69c6.27,0,11.43-3.54,12.08-8.09a31.21,31.21,0,0,0-3.37-.85V113.83a8.5,8.5,0,1,0-17,0v12.92a31.11,31.11,0,0,0-3.76,1C105,132.21,110.07,135.69,116.29,135.69Z"/><path class="b" d="M132.45,129.16v0a30.22,30.22,0,0,0-4.08-1.58h0c-.65,4.55-5.81,8.09-12.08,8.09s-11.34-3.48-12.06-8h0a30.29,30.29,0,0,0-3.45,1.34v0a26.44,26.44,0,0,0-15.16,18.68L91.54,151v1H141v-.71l6.35-3.44A26.4,26.4,0,0,0,132.45,129.16Z"/><path class="c" d="M108.49,109.78h16v10.36s-9.13,4-16,0Z"/><path class="d" d="M116.29,135.69c6.27,0,11.43-3.54,12.08-8.09a31.21,31.21,0,0,0-3.37-.85V113.83a8.5,8.5,0,1,0-17,0v12.92a31.11,31.11,0,0,0-3.76,1C105,132.21,110.07,135.69,116.29,135.69Z"/><path class="e" d="M80.84,98.2a7.57,7.57,0,0,0,7.77,7.44,7.71,7.71,0,0,0,7.85-7.47,7.57,7.57,0,0,0-7.77-7.44A7.71,7.71,0,0,0,80.84,98.2Z"/><path class="f" d="M85.19,98.43a14.42,14.42,0,0,1,4,.57c.94.32,1.71,1.15,2.73,1.1a.57.57,0,0,0,.54-.71c-.44-2.61-5.5-1.92-7.23-1.71a.38.38,0,0,0,0,.75Z"/><path class="e" d="M152.13,98.2a7.57,7.57,0,0,1-7.77,7.44,7.71,7.71,0,0,1-7.85-7.47,7.57,7.57,0,0,1,7.77-7.44A7.71,7.71,0,0,1,152.13,98.2Z"/><path class="f" d="M147.67,97.68c-1.74-.21-6.8-.9-7.23,1.71a.57.57,0,0,0,.54.71c1,0,1.79-.78,2.73-1.1a14.42,14.42,0,0,1,4-.57.38.38,0,0,0,0-.75Z"/><path class="e" d="M116.47,41.42A28.47,28.47,0,0,0,88.09,69.81V87.29a28.47,28.47,0,0,0,28.38,28.38h0a28.47,28.47,0,0,0,28.38-28.38V69.81A28.47,28.47,0,0,0,116.47,41.42Z"/><path class="f" d="M112.88,96.62a8.93,8.93,0,0,0,5.42.68c1.34-.37,3.3-.87,3.26-3.12,0-1.87-1.71-2.17-2.75-2-2.91.53-3.18-.12-5.2-.23A2.2,2.2,0,0,0,111,94.19C111,95.43,112.14,96.2,112.88,96.62Z"/><path class="c" d="M120.16,96.67a8.45,8.45,0,0,1-7.74-.22,3.87,3.87,0,0,1,3.82-1.95A4.36,4.36,0,0,1,120.16,96.67Z"/><path class="g" d="M130.9,75.53s-1.63-2.08-3.72-2.15a5.89,5.89,0,0,0-3.87,1.83"/><path class="g" d="M109.74,75.53s-1.63-2.08-3.72-2.15a5.89,5.89,0,0,0-3.87,1.83"/><path class="f" d="M114.37,86.69c-.57.52-1,.91-.82,1.72a.43.43,0,0,0,.62.25c.68-.36.7-.88.9-1.57a.43.43,0,0,0-.71-.41Z"/><path class="g" d="M117.23,74.58c.64,5.6,3.32,11.9.2,14.47"/><path class="g" d="M123.3,84.27s0-3.29,3.81-3.29,3.81,3.29,3.81,3.29"/><path class="g" d="M102.14,84.27S102.14,81,106,81s3.81,3.29,3.81,3.29"/><path class="h" d="M141,151.27,156.35,143S152.72,129,132.41,129l0,.15a30.2,30.2,0,0,0-4.09-1.59c-.65,4.55-5.81,8.09-12.08,8.09s-11.34-3.48-12.06-8a30.25,30.25,0,0,0-3.49,1.36v0C80.44,129,76.81,143,76.81,143l14.72,8v30.53c0,6.19-8.76,27.08-8.76,27.08h0a87.51,87.51,0,0,0,67,0S141,187.67,141,181.48Z"/><path class="h" d="M107.51,171.42a12.49,12.49,0,0,1-16.2-18.69h0a9.31,9.31,0,0,0,2-5.75"/><path class="h" d="M125.07,171.42a12.49,12.49,0,0,0,16.2-18.69h0a9.31,9.31,0,0,1-2-5.75"/><path class="i" d="M127.32,127.28c0,4.68-4.86,7.41-10.82,7.41s-10.82-2.74-10.82-7.41"/><circle class="c" cx="132.84" cy="93.47" r="5.52"/><circle class="c" cx="100.15" cy="93.47" r="5.52"/><path class="f" d="M144.85,95.4c2.08-14.42,1.88-19.77,1.46-27a40.76,40.76,0,0,0-3.6-14.22c-3-6.73-9.85-12-17.2-12.24h0c-7.44-1.71-13.24-2-19.56-.47S93.53,46.62,90,52a22.87,22.87,0,0,0-2.17,4.62c-3.8,10.46-3.5,21.9-1.5,33.27h0C88,96,93,100.32,96.17,102.22a.38.38,0,0,0,.57-.4c-.61-3-1.87-6.19-1.79-10.15.07-4.14-.17-8.32.49-12.41s2.34-8.2,5.56-10.8c3.46-2.79,8.1-3.46,12.38-4.69a43.86,43.86,0,0,0,7.59-3c2.15-1.08,4.33-2.48,5.3-4.68,1.05-2.4.41-5.17-.25-7.71l0-.3c.7-.47,1.52.41,1.86,1.18,1.39,3.18,1.85,6.73,3.51,9.78,2,3.67,5.58,6.27,7.65,9.9,4.4,7.69,1,19,5.84,26.44"/><path class="f" d="M96.47,59.76c9.35-3,18.48-7.53,24-14.62,2-2.59,3.57-5.81,2.43-8.68a8.59,8.59,0,0,0-5.91-4.9,5.53,5.53,0,0,0-6.81,2.86l-.05-.54c-.38-4.33-.07-6.73-3.75-9.65A15.6,15.6,0,0,0,98,21c-3.67-.36-10.68,1.42-12.71,4.13a6,6,0,0,0-.73,5.4,16.14,16.14,0,0,0,2.9,4.88l-.69-.24A7.12,7.12,0,0,0,79.23,35,5,5,0,0,0,77,41.18c.62,1.35,1.54,3.49,2.78,4.5,2.7,2.2,4.82,3,9.88,4.34h0a10.33,10.33,0,0,0-8.21.47c-2.39,1.39-3,5.12-2.21,7.51,1.07,3.12,3.18,3.1,4.82,3.57,2.34.67,5.34,0,7.82.15s4.45-1.37,6.51-2.64"/><path class="j" d="M127.19,127.28c0,4.67-4.86,7.4-10.82,7.4s-10.82-2.73-10.82-7.41c-3.74,1.37.28,7.34.28,7.34s2.46,3.39,10.51,3.39S127,134.61,127,134.61,131.3,127.87,127.19,127.28Z"/><path class="k" d="M144.75,209s-2,5.51-4.33,7.84l-13.08,1.08-.5-5.58Z"/><path class="k" d="M86,209s2,5.51,4.33,7.84l13.08,1.08.5-5.58Z"/><path class="l" d="M115.38,197C92.52,197,74,199.66,74,203v3.57c0,3.31,18.52,6,41.38,6s41.38-2.69,41.38-6V203C156.75,199.66,138.23,197,115.38,197Z"/><ellipse class="d" cx="115.38" cy="202.97" rx="41.38" ry="6"/><path class="m" d="M115.38,174.21c-17.6,0-31.87,1.64-31.87,3.66v21.21c0,2,14.27,3.66,31.88,3.66s31.88-1.64,31.88-3.66V177.86C147.25,175.84,133,174.21,115.38,174.21Z"/><ellipse class="n" cx="115.38" cy="177.86" rx="31.88" ry="3.66"/><path class="o" d="M143.58,179.57c-5.34,1.16-16,2-28.2,2s-22.85-.79-28.2-2"/><path class="p" d="M115.38,166.8c-20.6,0-37.29,1.92-37.29,4.28V200.5c0,2.36,16.7,4.28,37.29,4.28s37.29-1.92,37.29-4.28V171.08C152.67,168.71,136,166.8,115.38,166.8Z"/><path class="d" d="M115.38,166.8c-20.6,0-37.29,1.92-37.29,4.28V200.5c0,2.36,16.7,4.28,37.29,4.28s37.29-1.92,37.29-4.28V171.08C152.67,168.71,136,166.8,115.38,166.8Z"/><path class="q" d="M147.25,173.3c-6.54,1.23-18.37,2.06-31.88,2.06S90,174.54,83.5,173.3"/><path class="k" d="M90.33,216.81c.47,2.5,11.6,3.94,15.34,2.83,1.86-.55,5.27-5,3.16-7.1S88.54,207.32,90.33,216.81Z"/><path class="k" d="M140.42,216.81c-.47,2.5-11.6,3.94-15.34,2.83-1.86-.55-5.27-5-3.16-7.1S142.21,207.32,140.42,216.81Z"/></svg>