<svg xmlns="http://www.w3.org/2000/svg" viewBox="0 0 241 241"><defs><style>.a,.e,.h,.j,.m{fill:none;}.b,.c,.p{fill:#fff;}.c,.e,.f,.h,.i,.j,.k,.l,.m{stroke:#2b343b;}.c,.e,.f,.h,.i,.l,.m{stroke-linecap:round;}.c,.e,.f,.h,.i,.j,.l,.m{stroke-linejoin:round;}.c,.e,.f,.i,.l{stroke-width:2px;}.d{fill:#ffaa96;}.f{fill:#f9fbfc;}.g,.k{fill:#2b343b;}.h{stroke-width:1.5px;}.i{fill:#fd0d51;}.j{stroke-width:0.61px;}.k{stroke-miterlimit:10;stroke-width:0.39px;}.l{fill:#fde803;}.n{fill:#bdccd4;}.o{fill:#f02;}.p{font-size:21.02px;font-family:NotoSans-Regular, Noto Sans;}</style></defs><title>Recurso 2</title><rect class="a" width="241" height="241"/><path class="b" d="M70.84,141.49a1.21,1.21,0,0,0,.46,0l.22,0,.14,0a.74.74,0,0,0,.27,0c.06,0,.09.07.14.09s.08,0,.09.07l0,.19a1.41,1.41,0,0,1,0,.17l0,.27L71.81,145c-.27,2.1-.49,4.46-.71,6.85l-1.3,14.82c-.45,5-.9,10.1-1.44,15.19s-1.11,10.21-2,15.41l0,.12a5,5,0,0,1-9.63.83,70.34,70.34,0,0,1-3.54-16.28,101.31,101.31,0,0,1-.38-16.52,76.5,76.5,0,0,1,2.66-16.65,44.4,44.4,0,0,1,3.32-8.48,24.83,24.83,0,0,1,2.94-4.48l.49-.58c.18-.2.4-.42.6-.62l.63-.6c.23-.2.53-.43.79-.63s.54-.39.86-.59.73-.4,1.1-.57l.56-.25.69-.21a11.7,11.7,0,0,1,1.4-.28,5.12,5.12,0,1,1,2,10Z"/><path class="c" d="M112.4,129.48a11.81,11.81,0,0,1,5.77.6,16.32,16.32,0,0,1,4.25,2.35,26.39,26.39,0,0,1,5.25,5.42,49.54,49.54,0,0,1,5.81,10.76,74.12,74.12,0,0,1,3.31,10.48c.41,1.71.76,3.39,1,5a37.17,37.17,0,0,1,.58,4.48l.07,2a6,6,0,0,1-10,4.82A22.26,22.26,0,0,1,126,172.8a32,32,0,0,1-2-2.55A50,50,0,0,1,121,165.2a89.57,89.57,0,0,1-4.43-9.85c-1.25-3.17-2.36-6.3-3.37-8.94-.49-1.31-1-2.48-1.24-3.26a1.3,1.3,0,0,1-.07-.92c.12-.2.4-.37.55-.75a6,6,0,0,1,0-12Z"/><path class="c" d="M94.23,135.69c6.27,0,11.43-3.54,12.08-8.09a31.21,31.21,0,0,0-3.37-.85V113.83a8.5,8.5,0,1,0-17,0v12.92a31.11,31.11,0,0,0-3.76,1C82.89,132.21,88,135.69,94.23,135.69Z"/><path class="c" d="M110.39,129.16v0a30.22,30.22,0,0,0-4.08-1.58h0c-.65,4.55-5.81,8.09-12.08,8.09s-11.34-3.48-12.06-8h0a30.29,30.29,0,0,0-3.45,1.34v0a26.44,26.44,0,0,0-15.16,18.68L69.47,151v1H119v-.71l6.35-3.44A26.4,26.4,0,0,0,110.39,129.16Z"/><path class="d" d="M86.43,109.78h16v10.36s-9.13,4-16,0Z"/><path class="e" d="M94.23,135.69c6.27,0,11.43-3.54,12.08-8.09a31.21,31.21,0,0,0-3.37-.85V113.83a8.5,8.5,0,1,0-17,0v12.92a31.11,31.11,0,0,0-3.76,1C82.89,132.21,88,135.69,94.23,135.69Z"/><path class="f" d="M58.77,98.2a7.57,7.57,0,0,0,7.77,7.44,7.71,7.71,0,0,0,7.85-7.47,7.57,7.57,0,0,0-7.77-7.44A7.71,7.71,0,0,0,58.77,98.2Z"/><path class="g" d="M63.13,98.43a14.42,14.42,0,0,1,4,.57c.94.32,1.71,1.15,2.73,1.1a.57.57,0,0,0,.54-.71c-.44-2.61-5.5-1.92-7.23-1.71a.38.38,0,0,0,0,.75Z"/><path class="f" d="M130.07,98.2a7.57,7.57,0,0,1-7.77,7.44,7.71,7.71,0,0,1-7.85-7.47,7.57,7.57,0,0,1,7.77-7.44A7.71,7.71,0,0,1,130.07,98.2Z"/><path class="g" d="M125.6,97.68c-1.74-.21-6.8-.9-7.23,1.71a.57.57,0,0,0,.54.71c1,0,1.79-.78,2.73-1.1a14.42,14.42,0,0,1,4-.57.38.38,0,0,0,0-.75Z"/><path class="f" d="M94.41,41.42A28.47,28.47,0,0,0,66,69.81V87.29a28.47,28.47,0,0,0,28.38,28.38h0a28.47,28.47,0,0,0,28.38-28.38V69.81A28.47,28.47,0,0,0,94.41,41.42Z"/><ellipse class="g" cx="105.05" cy="83.74" rx="2.97" ry="2.82" transform="translate(18.15 186.19) rotate(-88.26)"/><ellipse class="g" cx="83.89" cy="83.74" rx="2.97" ry="2.82" transform="translate(-2.37 165.04) rotate(-88.26)"/><path class="g" d="M92.31,86.69c-.57.52-1,.91-.82,1.72a.43.43,0,0,0,.62.25c.68-.36.7-.88.9-1.57a.43.43,0,0,0-.71-.41Z"/><path class="h" d="M95.17,74.58c.64,5.6,3.32,11.9.2,14.47"/><path class="h" d="M88.63,72.38s-4.18,2.83-8.53,2.83"/><path class="h" d="M100.31,72.38s4.18,2.83,8.53,2.83"/><circle class="h" cx="95.57" cy="97.13" r="3.67"/><path class="i" d="M119,151.27,134.29,143S130.66,129,110.35,129l0,.15a30.2,30.2,0,0,0-4.09-1.59c-.65,4.55-5.81,8.09-12.08,8.09s-11.34-3.48-12.06-8a30.25,30.25,0,0,0-3.49,1.36v0C58.38,129,54.75,143,54.75,143l14.72,8v30.53c0,6.19-8.76,27.08-8.76,27.08h0a87.51,87.51,0,0,0,67,0S119,187.67,119,181.48Z"/><path class="i" d="M85.45,171.42a12.49,12.49,0,0,1-16.2-18.69h0a9.31,9.31,0,0,0,2-5.75"/><path class="i" d="M103,171.42a12.49,12.49,0,0,0,16.2-18.69h0a9.31,9.31,0,0,1-2-5.75"/><path class="j" d="M105.26,127.28c0,4.68-4.86,7.41-10.82,7.41S83.61,132,83.61,127.28"/><circle class="d" cx="110.78" cy="93.47" r="5.52"/><circle class="d" cx="78.09" cy="93.47" r="5.52"/><path class="g" d="M123.48,95.4c0-12.71,0-19.32-.42-26.6-.29-5-.39-10.11-2.4-14.67-3-6.73-9.85-12-17.2-12.24h0c-7.44-1.71-13.24-2-19.56-.47S71.46,46.62,68,52a22.87,22.87,0,0,0-2.17,4.62C62,67.1,62.3,78.55,64.3,89.91h0c1.59,6.07,6.63,10.41,9.8,12.31a.38.38,0,0,0,.57-.4c-.61-3-1.87-6.19-1.79-10.15.07-4.14-.17-8.32.49-12.41s2.34-8.2,5.56-10.8C82.39,65.66,87,65,91.31,63.77a43.86,43.86,0,0,0,7.59-3c2.15-1.08,4.33-2.48,5.3-4.68,1.05-2.4.41-5.17-.25-7.71l0-.3c.7-.47,1.52.41,1.86,1.18,1.39,3.18,1.85,6.73,3.51,9.78,2,3.67,5.58,6.27,7.65,9.9,4.4,7.69,1,19,5.84,26.44"/><path class="g" d="M74.41,59.76c9.35-3,18.48-7.53,24-14.62,2-2.59,3.57-5.81,2.43-8.68A8.59,8.59,0,0,0,95,31.56a5.53,5.53,0,0,0-6.81,2.86l-.05-.54c-.38-4.33-.07-6.73-3.75-9.65A15.6,15.6,0,0,0,75.89,21c-3.67-.36-10.68,1.42-12.71,4.13a6,6,0,0,0-.73,5.4,16.14,16.14,0,0,0,2.9,4.88l-.69-.24A7.12,7.12,0,0,0,57.17,35a5,5,0,0,0-2.22,6.16c.62,1.35,1.54,3.49,2.78,4.5,2.7,2.2,4.82,3,9.88,4.34h0a10.33,10.33,0,0,0-8.21.47c-2.39,1.39-3,5.12-2.21,7.51,1.07,3.12,3.18,3.1,4.82,3.57,2.34.67,5.34,0,7.82.15s4.45-1.37,6.51-2.64"/><path class="k" d="M105.13,127.28c0,4.67-4.86,7.4-10.82,7.4s-10.82-2.73-10.82-7.41c-3.74,1.37.28,7.34.28,7.34S86.22,138,94.27,138s10.65-3.39,10.65-3.39S109.24,127.87,105.13,127.28Z"/><path class="b" d="M127.94,172.59a19.48,19.48,0,0,1-2-3.33c-.57-1.15-1.08-2.31-1.52-3.47a53.81,53.81,0,0,1-2.19-7.06c-1.06-4.78-2-9.61-2.94-14.5s-1.87-9.86-3.24-14.73c-.71-2.42-1.5-4.83-2.45-7.18-.48-1.17-.95-2.35-1.52-3.47a37.28,37.28,0,0,0-3.13-3.91,4,4,0,0,1,.63-4.28l10.22-11.82h0l3.09-7.53a2.43,2.43,0,0,1,4.61,1.47l-2,8.84c0,.12-6.64,12.54-6.64,12.54s1.17,1.69,2.58,4,3,4.53,4.46,6.82a131.65,131.65,0,0,1,8.16,14.33,74.37,74.37,0,0,1,5.37,15.59,37.16,37.16,0,0,1,.79,8.27,30.06,30.06,0,0,1-.36,4.25,24,24,0,0,1-1.13,4.43,5.84,5.84,0,0,1-10,1.73Z"/><path class="e" d="M124.44,165.79a53.81,53.81,0,0,1-2.19-7.06c-1.06-4.78-2-9.61-2.94-14.5s-1.87-9.86-3.24-14.73c-.71-2.42-1.5-4.83-2.45-7.18-.48-1.17-.95-2.35-1.52-3.47a37.28,37.28,0,0,0-3.13-3.91,4,4,0,0,1,.63-4.28l10.22-11.82h0l3.09-7.53a2.43,2.43,0,0,1,4.61,1.47l-2,8.84c0,.12-6.64,12.54-6.64,12.54s1.17,1.69,2.58,4,3,4.53,4.46,6.82a131.65,131.65,0,0,1,8.16,14.33,74.37,74.37,0,0,1,5.37,15.59,37.16,37.16,0,0,1,.79,8.27,30.06,30.06,0,0,1-.36,4.25,16.15,16.15,0,0,1-1.13,4.43c-.2.44-.94,1.7-.94,1.7a6.05,6.05,0,0,1-9.29,1.83A22.26,22.26,0,0,1,126,172.8a32,32,0,0,1-2-2.55,48.3,48.3,0,0,1-2.76-4.5"/><rect class="l" x="102.44" y="118.23" width="19.91" height="34.5" rx="2" ry="2"/><path class="b" d="M125.75,135.48c-.21.85-.87,2.72-1.67,3.07a11.51,11.51,0,0,1-1.33.48c-2.51.77-5.75,1.21-8.56,3.61-1.41,1.2-3,3.39-5,5.14a10.69,10.69,0,0,1-4.27,2.43,4.39,4.39,0,0,0-.58.52,7.27,7.27,0,0,0-.61.62c-.22.22-.46.5-.7.78s-.48.56-.72.87a72.53,72.53,0,0,0-5.5,8.06c-1.75,2.84-3.38,5.79-5.06,8.71a168.78,168.78,0,0,1-10.78,17,51.09,51.09,0,0,1-6.65,7.64,34.13,34.13,0,0,1-8.74,6.16l-.07,0a5.71,5.71,0,0,1-7.6-2.75,5.8,5.8,0,0,1-.51-3,32.89,32.89,0,0,1,3.07-10.38,48,48,0,0,1,5.3-8.81A123.52,123.52,0,0,1,79.42,160.2c2.47-2.43,5-4.79,7.59-7.2s5.11-4.77,7.88-7.23c.33-.31.71-.61,1.07-.93s.73-.62,1.15-1,.8-.62,1.28-1c0,0,7.87-9.78,11.38-12,2.3-1.42,8-2.43,10.65-2.08a12.39,12.39,0,0,1,3.66,1.93,6.15,6.15,0,0,1,1.92,2.08A6.15,6.15,0,0,1,125.75,135.48Z"/><path class="e" d="M57,144.17c-.61,1.54-1.11,3.07-1.54,4.59a76.5,76.5,0,0,0-2.66,16.65,101.32,101.32,0,0,0,.38,16.52,70.34,70.34,0,0,0,3.54,16.28,5,5,0,0,0,3.84,3.23,5,5,0,0,0,2.62-.26,5.69,5.69,0,0,0,2.39-.54l.07,0a34.13,34.13,0,0,0,8.74-6.16A51.09,51.09,0,0,0,81,186.81a168.78,168.78,0,0,0,10.78-17c1.68-2.92,3.31-5.87,5.06-8.71a72.53,72.53,0,0,1,5.5-8.06c.24-.31.47-.6.72-.87s.48-.56.7-.78a7.27,7.27,0,0,1,.61-.62,4.39,4.39,0,0,1,.58-.52,10.69,10.69,0,0,0,4.27-2.43c2-1.75,3.58-3.94,5-5.14,2.81-2.4,6-2.84,8.56-3.61a11.51,11.51,0,0,0,1.33-.48c.8-.35,1.46-2.22,1.67-3.07a6.15,6.15,0,0,0,.25-2.57,6.15,6.15,0,0,0-1.92-2.08,12.39,12.39,0,0,0-3.66-1.93c-2.69-.35-8.35.66-10.65,2.08-3.51,2.17-11.38,12-11.38,12-.48.34-.93.68-1.28,1s-.79.64-1.15,1-.74.62-1.07.93c-2.77,2.46-5.29,4.86-7.88,7.23s-5.12,4.77-7.59,7.2A127,127,0,0,0,69.4,171"/><path class="e" d="M60.48,184.47a48,48,0,0,1,5.3-8.81A123.52,123.52,0,0,1,79.42,160.2c2.47-2.43,5-4.79,7.59-7.2s5.11-4.77,7.88-7.23c.33-.31.71-.61,1.07-.93s.73-.62,1.15-1,.8-.62,1.28-1c0,0,7.87-9.78,11.38-12,2.3-1.42,8-2.43,10.65-2.08a12.39,12.39,0,0,1,3.66,1.93,6.15,6.15,0,0,1,1.92,2.08,6.15,6.15,0,0,1-.25,2.57c-.21.85-.87,2.72-1.67,3.07a11.51,11.51,0,0,1-1.33.48c-2.51.77-5.75,1.21-8.56,3.61-1.41,1.2-3,3.39-5,5.14a10.69,10.69,0,0,1-4.27,2.43,4.39,4.39,0,0,0-.58.52,7.27,7.27,0,0,0-.61.62c-.22.22-.46.5-.7.78s-.48.56-.72.87a72.53,72.53,0,0,0-5.5,8.06c-1.75,2.84-3.38,5.79-5.06,8.71a168.78,168.78,0,0,1-10.78,17,51.09,51.09,0,0,1-6.65,7.64,34.13,34.13,0,0,1-8.74,6.16l-.07,0"/><path class="c" d="M58.73,140.28"/><path class="m" d="M125.75,135.48a38.72,38.72,0,0,0-8.2,1.9"/><path class="m" d="M116.5,135a37.25,37.25,0,0,1,9.5-2.13"/><path class="m" d="M115,132.59a46.1,46.1,0,0,1,9.13-1.76"/><path class="n" d="M154.1,73.17a5.4,5.4,0,0,1-10.49,0Z"/><path class="n" d="M164.36,55.61c0-.19,0-.39,0-.58V49.24a15.52,15.52,0,0,0-11.54-15v-.75a4,4,0,0,0-7.94,0v.75a15.52,15.52,0,0,0-11.54,15V55c0,.2,0,.39,0,.59-4.22,2.53-6.85,6.09-6.85,10a9.54,9.54,0,0,0,1.61,5.21H169.6a9.54,9.54,0,0,0,1.61-5.21C171.21,61.7,168.58,58.14,164.36,55.61Zm-15.5-21.89a15.65,15.65,0,0,0-1.69.09V33.3a1.68,1.68,0,1,1,3.37,0v.51A16.44,16.44,0,0,0,148.86,33.72Z"/><rect class="o" x="154.1" y="20.98" width="35.52" height="36.88" rx="5.68" ry="5.68"/><text class="p" transform="translate(165.33 46.53)">1</text></svg>